<svg width="37" height="37" viewBox="0 0 37 37" fill="none" xmlns="http://www.w3.org/2000/svg">
<path d="M36.6316 19.8536C36.2894 19.5584 35.8007 19.4956 35.3837 19.6921C34.3532 20.1801 33.7461 20.9718 33.4468 21.4652C33.3825 21.4449 33.3239 21.436 33.2599 21.4187L34.6269 14.991C34.7355 14.4783 34.6297 13.9608 34.3374 13.5471C34.05 13.1114 33.5993 12.8134 33.0691 12.7092C32.7381 12.643 32.4023 12.6688 32.085 12.7632L32.1788 12.3227C32.2881 11.8113 32.1831 11.2938 31.8901 10.8774C31.6013 10.4423 31.1505 10.1444 30.6217 10.0402C30.1 9.93599 29.566 10.0361 29.1184 10.3212C28.7449 10.5584 28.4782 10.9042 28.3356 11.3042C28.0802 11.0874 27.7752 10.9306 27.4306 10.8631C26.352 10.6449 25.2892 11.3239 25.0676 12.3684L24.9738 12.8103C24.7261 12.6084 24.431 12.455 24.0916 12.3874C23.5678 12.2826 23.0344 12.3834 22.5882 12.6671C22.1413 12.9508 21.8364 13.3862 21.7292 13.8922L19.8935 22.5281C19.5633 24.079 20.8618 25.3287 21.4577 25.8093L21.1661 27.183C20.2825 27.2485 19.5138 27.8587 19.3282 28.7352L19.0422 30.077C18.933 30.5897 19.0373 31.1141 19.336 31.5515C19.6346 31.9886 20.092 32.2886 20.6239 32.3934L28.5232 33.9589C28.6602 33.9868 28.7987 34 28.9353 34C29.3292 34 29.7139 33.889 30.0504 33.6749C30.5029 33.3864 30.8128 32.9446 30.9214 32.4315L31.2067 31.0898C31.3922 30.2135 30.9337 29.3587 30.1509 28.964L30.4636 27.5003L33.6849 25.6232C33.9332 25.4793 33.5965 25.4269 33.4468 25.187C33.2979 24.9477 33.3115 24.6542 33.0624 24.8001L29.7262 26.7463C29.6011 26.8185 29.5123 26.9394 29.4828 27.0782L29.1406 28.6782L22.2116 27.3046L22.5517 25.7052C22.5935 25.5073 22.5092 25.303 22.337 25.187C22.3209 25.1755 20.6461 24.0288 20.9219 22.7314L22.7576 14.0955C22.8085 13.8556 22.9543 13.6482 23.1662 13.5132C23.378 13.3788 23.6335 13.3313 23.8819 13.3801C24.1302 13.4294 24.3449 13.5702 24.4847 13.7748C24.6239 13.9781 24.6723 14.2234 24.6225 14.4627L23.7311 18.6574C23.6724 18.9316 23.8555 19.1994 24.1397 19.2554C24.1749 19.2629 24.2103 19.2663 24.2455 19.2663C24.4896 19.2663 24.7085 19.1013 24.7588 18.86L25.4997 15.3722L25.5018 15.3681L25.6501 14.6701C25.6508 14.6673 25.6501 14.6646 25.6508 14.6612L26.0949 12.5711C26.2006 12.0733 26.7062 11.7536 27.2199 11.8541C27.4696 11.9039 27.6808 12.0434 27.8227 12.2569C27.9626 12.4561 28.0111 12.6994 27.9605 12.9407L27.5462 14.8906V14.894L26.9957 17.4833C26.937 17.7575 27.1201 18.0252 27.4043 18.0812C27.4394 18.0887 27.4749 18.0921 27.51 18.0921C27.7542 18.0921 27.9731 17.9272 28.0233 17.6865L29.286 11.7465C29.337 11.5079 29.4828 11.3012 29.696 11.1655C29.9079 11.0298 30.164 10.9816 30.4103 11.0311C30.6601 11.081 30.8712 11.2205 31.0139 11.4339C31.1537 11.6331 31.2022 11.8764 31.1509 12.1177L30.4826 15.2618C30.4819 15.2639 30.4826 15.2652 30.4826 15.2672L29.676 19.0626C29.6173 19.3368 29.8004 19.6046 30.0846 19.6606C30.3692 19.7172 30.6464 19.5404 30.7036 19.2659L31.7341 14.4172C31.785 14.1787 31.9308 13.972 32.1441 13.8363C32.3566 13.7012 32.6114 13.653 32.859 13.7019C33.1088 13.7518 33.32 13.8906 33.4619 14.1054C33.6018 14.3039 33.6509 14.5472 33.5996 14.7885L32.2312 21.223C29.091 20.9209 27.3344 23.4169 27.2567 23.5292C27.0972 23.7631 27.1636 24.0773 27.4049 24.232C27.6484 24.3854 27.9723 24.3213 28.1325 24.0888C28.148 24.0651 29.7581 21.7639 32.5509 22.2869C32.8502 22.3408 33.1643 22.4321 33.51 22.5638C33.6386 22.613 33.7844 22.6116 33.9123 22.557C34.0395 22.5037 34.1403 22.4036 34.1912 22.2781C34.1954 22.2672 34.655 21.1647 35.845 20.6016C35.8569 20.5955 35.8945 20.5765 35.9465 20.6664L34.7239 23.8374L33.0624 24.8001C32.8133 24.9447 32.7328 25.2555 32.8818 25.4955C32.9805 25.6536 33.1548 25.7415 33.3329 25.7415C33.4239 25.7415 33.517 25.7184 33.6031 25.6706L35.4226 24.6158C35.5241 24.5564 35.6025 24.4651 35.6443 24.3576L36.9337 21.0149C37.0875 20.6009 36.9686 20.1455 36.6316 19.8536ZM29.4142 29.7669C29.9437 29.8725 30.2866 30.3744 30.1787 30.8858L29.8934 32.2276C29.8397 32.4763 29.69 32.6891 29.4715 32.8289C29.2526 32.9674 28.9916 33.0162 28.7334 32.966L20.834 31.4005C20.3039 31.295 19.961 30.7931 20.0695 30.281L20.3548 28.9392C20.45 28.4913 20.8607 28.1818 21.3167 28.1818C21.3817 28.1818 21.4474 28.1879 21.5145 28.2008L29.4142 29.7669Z" fill="white"/>
<path d="M17.671 28.7298C17.4799 27.8483 16.7188 27.2436 15.8331 27.1798L15.54 25.8048C16.1352 25.325 17.4331 24.0753 17.1043 22.5238L15.2706 13.8866C15.1599 13.382 14.8549 12.948 14.4115 12.6643C13.9646 12.3786 13.4306 12.2812 12.913 12.3861C12.5771 12.4502 12.2757 12.5975 12.0259 12.8004L11.9335 12.3654C11.8235 11.8601 11.5171 11.4262 11.0702 11.1425C10.6219 10.8574 10.0861 10.7614 9.56957 10.8642C9.22806 10.9297 8.91887 11.0892 8.66553 11.3026C8.52077 10.9019 8.2534 10.5568 7.87992 10.3196C7.43159 10.0353 6.8961 9.93518 6.38215 10.0414C5.85759 10.1388 5.3924 10.4462 5.11869 10.8663C4.81443 11.2932 4.70797 11.811 4.82005 12.3224L4.91245 12.7601C4.60326 12.6688 4.27019 12.642 3.93223 12.7095C3.40767 12.8083 2.94319 13.115 2.66877 13.5351C2.36521 13.962 2.25875 14.4805 2.37083 14.9919L3.73934 21.4178C3.67575 21.4354 3.61567 21.4442 3.55102 21.4643C3.25377 20.9699 2.6477 20.1785 1.61405 19.6913C1.19419 19.4928 0.702637 19.5569 0.361116 19.8562C0.0252254 20.15 -0.0886086 20.6068 0.0716014 21.0184L1.35188 24.3553C1.39228 24.4629 1.46993 24.5532 1.57147 24.6129L2.5999 25.2148C2.68458 25.264 2.77839 25.2878 2.87149 25.2878C3.04857 25.2878 3.22213 25.2006 3.32192 25.0425C3.47159 24.8032 3.39254 24.4917 3.14483 24.3465L2.27454 23.8379L1.06559 20.6065C1.10073 20.5752 1.13692 20.5929 1.15237 20.6004C2.33182 21.1558 2.79918 22.2651 2.80269 22.2739C2.85293 22.4002 2.95377 22.5016 3.08166 22.5556C3.20955 22.6102 3.35536 22.6123 3.48466 22.5624C3.82195 22.4341 4.1473 22.3401 4.45507 22.2848C7.22682 21.7687 8.80508 23.9923 8.87083 24.0873C9.03034 24.3204 9.35569 24.3846 9.59707 24.2305C9.83914 24.0771 9.90625 23.7629 9.74675 23.5284C9.6698 23.4168 7.91726 20.9204 4.77063 21.2224L3.39933 14.7836C3.34698 14.5444 3.39511 14.3045 3.54619 14.0918C3.6797 13.8871 3.8877 13.7494 4.13786 13.7026C4.64169 13.6086 5.13184 13.9031 5.25659 14.3856L5.48462 15.4633C5.48603 15.4708 5.49165 15.4769 5.49375 15.4843L6.29624 19.2679C6.35421 19.542 6.63072 19.7205 6.91531 19.6625C7.19849 19.6065 7.3819 19.3381 7.32393 19.0646L6.2955 14.2136C6.29199 14.1973 6.28707 14.1803 6.28215 14.165C6.28074 14.1603 6.27934 14.1555 6.27793 14.1508L5.84753 12.1158C5.79518 11.8766 5.84261 11.6367 5.99439 11.4239C6.1272 11.2193 6.3352 11.0819 6.58887 11.0347C6.83657 10.9869 7.08989 11.032 7.30316 11.1664C7.51643 11.3021 7.66329 11.5095 7.71529 11.7487L8.11125 13.614L8.42184 15.0918C8.42254 15.0958 8.42606 15.0992 8.42676 15.1033L8.97522 17.6876C9.02546 17.9275 9.2447 18.0924 9.48783 18.0924C9.52297 18.0924 9.55845 18.0891 9.59499 18.0823C9.87818 18.0263 10.0609 17.7579 10.0029 17.4837L9.01738 12.8359C8.99841 12.634 9.05182 12.4318 9.18322 12.2482C9.31392 12.0477 9.52896 11.9062 9.77841 11.8583C10.0261 11.8105 10.2801 11.8556 10.4927 11.99C10.7067 12.1257 10.8528 12.333 10.9055 12.5723L12.2417 18.8624C12.2926 19.1029 12.5111 19.2679 12.755 19.2679C12.7901 19.2679 12.8256 19.2645 12.8614 19.2563C13.1453 19.2003 13.328 18.9319 13.2701 18.6584L12.5291 15.1709V15.1688L12.3696 14.4074C12.3611 14.3643 12.3569 14.3249 12.3569 14.2825C12.3569 13.8441 12.6766 13.4651 13.1228 13.3793C13.3691 13.3307 13.6211 13.3759 13.8322 13.5102C14.0441 13.646 14.1902 13.8533 14.2422 14.0925L16.0752 22.727C16.3507 24.0243 14.6768 25.1708 14.66 25.183C14.4886 25.2984 14.4032 25.5026 14.4461 25.7012L14.7883 27.3052L7.86179 28.674L7.52027 27.0775C7.49006 26.9384 7.40222 26.8179 7.27609 26.7449L3.14483 24.3465C2.89643 24.2033 2.95236 24.373 2.80269 24.6129C2.65301 24.8521 2.12243 24.9362 2.37083 25.0808L6.53828 27.4995L6.85028 28.9569C6.05483 29.3509 5.6023 30.2036 5.79235 31.0919L6.07905 32.4289C6.18832 32.945 6.49962 33.3875 6.95356 33.677C7.28805 33.8904 7.67136 34 8.0624 34C8.19942 34 8.33786 33.9864 8.47523 33.9576L16.3735 32.3902C16.9072 32.2854 17.3653 31.9854 17.665 31.547C17.9629 31.1093 18.0673 30.587 17.9573 30.0754L17.671 28.7298ZM16.7881 30.9898C16.6433 31.2012 16.4216 31.3464 16.1627 31.398L8.26369 32.9653C8.00756 33.0159 7.74826 32.9674 7.53043 32.8296C7.31084 32.6898 7.15976 32.4757 7.10636 32.2242L6.81966 30.8873C6.70969 30.3745 7.03925 29.8832 7.56873 29.7678C7.57717 29.7658 7.5856 29.7637 7.59333 29.7617L15.4846 28.2025C15.4937 28.2011 15.5028 28.1977 15.512 28.1957H15.5141L15.5155 28.195L15.519 28.1944C16.0421 28.1153 16.534 28.4349 16.6426 28.9368L16.9293 30.2813C16.982 30.5273 16.9321 30.7791 16.7881 30.9898Z" fill="white"/>
<path d="M18.5 6C18.776 6 19 5.80798 19 5.57148V4.42852C19 4.19201 18.776 4 18.5 4C18.224 4 18 4.19202 18 4.42852V5.57148C18 5.80799 18.224 6 18.5 6Z" fill="white"/>
<path d="M19 7.49551C19 7.22203 18.776 7 18.5 7C18.224 7 18 7.22204 18 7.49551V9.50449C18 9.77797 18.224 10 18.5 10C18.776 10 19 9.77796 19 9.50449V7.49551Z" fill="white"/>
<path d="M21.2003 9.95523C21.2577 9.98599 21.3192 10 21.3801 10C21.5158 10 21.6467 9.92922 21.7163 9.80342L22.9545 7.55098C23.054 7.36916 22.9849 7.14257 22.7997 7.04503C22.6137 6.94649 22.3836 7.01527 22.2837 7.19684L21.0455 9.44928C20.946 9.6311 21.0151 9.85769 21.2003 9.95523Z" fill="white"/>
<path d="M15.2837 9.80344C15.3528 9.92898 15.4837 10 15.6194 10C15.6809 10 15.7429 9.986 15.7998 9.95524C15.9847 9.85721 16.0544 9.63063 15.9541 9.44933L14.7163 7.19709C14.6168 7.01477 14.3857 6.9465 14.2002 7.04529C14.0153 7.14331 13.9456 7.36989 14.0459 7.5512L15.2837 9.80344Z" fill="white"/>
<path d="M29.4768 6.9698C30.3329 6.9698 31.0299 7.6662 31.0299 8.5235C31.0299 8.78649 31.2434 9 31.5064 9C31.77 9 31.9829 8.78648 31.9829 8.5235C31.9829 7.6669 32.6793 6.9698 33.5366 6.9698C34.1554 6.97874 34.1535 6.00756 33.5366 6.01647C32.68 6.01647 31.9829 5.32006 31.9829 4.46342C31.9918 3.84457 31.0206 3.84648 31.0296 4.46342C31.0296 5.31944 30.3331 6.01647 29.4765 6.01647C29.2135 6.01647 29 6.22999 29 6.49297C29 6.75628 29.2135 6.9698 29.4768 6.9698ZM31.507 5.9319C31.6634 6.14733 31.8533 6.33659 32.0688 6.49299C31.8533 6.64938 31.6634 6.83927 31.507 7.05471C31.3506 6.83927 31.1614 6.64938 30.9459 6.49299C31.1614 6.33659 31.3503 6.14733 31.507 5.9319Z" fill="white"/>
<path d="M1.54534 7.54539H2.45448V8.45461C2.45448 8.75562 2.69885 9 2.99982 9C3.30079 9 3.54515 8.75561 3.54515 8.45461V7.54539H4.45466C4.75565 7.54539 5 7.301 5 7C5 6.699 4.75564 6.45461 4.45466 6.45461H3.54552V5.54539C3.54552 5.24438 3.30115 5 3.00018 5C2.69921 5 2.45485 5.24439 2.45485 5.54539V6.45461H1.54534C1.24435 6.45461 1 6.699 1 7C1 7.301 1.24436 7.54539 1.54534 7.54539Z" fill="white"/>
</svg>
