<svg width="37" height="37" viewBox="0 0 37 37" fill="none" xmlns="http://www.w3.org/2000/svg">
<path d="M12.9823 19.0731C14.6611 20.2805 16.7348 21 18.9997 21C21.2842 21 23.3843 20.2618 25.0697 19.0294C25.1158 19.0043 25.1621 18.9731 25.2015 18.9357C27.5124 17.1965 29 14.5063 29 11.4971C29 6.26022 24.5102 2 19 2C13.4898 2 9 6.26049 9 11.5031C9 14.5188 10.4879 17.2027 12.7985 18.9417C12.8515 18.998 12.9173 19.0417 12.9829 19.0731L12.9823 19.0731ZM13.9503 18.1973C14.0753 15.6508 16.2874 13.6113 18.9997 13.6113C21.7121 13.6113 23.924 15.6508 24.0492 18.1973C22.6271 19.1732 20.8824 19.7489 18.9997 19.7489C17.117 19.7549 15.3723 19.1731 13.9503 18.1973ZM16.5111 9.99521C16.5111 8.69385 17.6237 7.63025 18.9997 7.63025C20.3757 7.63025 21.4883 8.68755 21.4883 9.99521C21.4883 11.3029 20.3691 12.3602 18.9997 12.3602C17.6303 12.3602 16.5111 11.2966 16.5111 9.99521ZM10.3163 11.5032C10.3163 6.9547 14.2137 3.25084 19.0001 3.25084C23.7864 3.25084 27.6838 6.95464 27.6838 11.5032C27.6838 13.7178 26.7556 15.7262 25.2545 17.2153C24.8266 15.207 23.3453 13.5615 21.3901 12.8108C22.2526 12.1476 22.8055 11.1342 22.8055 10.0018C22.8055 8.00603 21.1005 6.38573 19.0004 6.38573C16.9003 6.38573 15.1953 8.00603 15.1953 10.0018C15.1953 11.1343 15.7483 12.1476 16.6107 12.8108C14.6555 13.5615 13.1742 15.2133 12.7463 17.2216C11.2452 15.7328 10.317 13.7181 10.317 11.5034L10.3163 11.5032Z" fill="white"/>
<path d="M28.6433 23H8.35671C7.05581 23 6 24.12 6 25.5C6 26.88 7.05581 28 8.35671 28H28.6433C29.9442 28 31 26.88 31 25.5C31 24.12 29.9442 23 28.6433 23ZM28.6433 26.6666H8.35671C7.75333 26.6666 7.257 26.1398 7.257 25.5C7.257 24.8599 7.7536 24.3334 8.35671 24.3334H28.6433C29.2467 24.3334 29.743 24.8602 29.743 25.5C29.743 26.1401 29.2527 26.6666 28.6433 26.6666Z" fill="white"/>
<path d="M28.6433 29H8.35671C7.05581 29 6 30.12 6 31.5C6 32.88 7.05581 34 8.35671 34H28.6433C29.9442 34 31 32.88 31 31.5C31 30.12 29.9442 29 28.6433 29ZM28.6433 32.6669H8.35671C7.75333 32.6669 7.257 32.1401 7.257 31.5003C7.257 30.8602 7.7536 30.3337 8.35671 30.3337H28.6433C29.2467 30.3337 29.743 30.8605 29.743 31.5003C29.743 32.1401 29.2527 32.6669 28.6433 32.6669Z" fill="white"/>
</svg>
