<svg width="24" height="24" viewBox="0 0 24 24" fill="none" xmlns="http://www.w3.org/2000/svg">
<circle cx="12" cy="12" r="12" fill="#FF2D55"/>
<path fill-rule="evenodd" clip-rule="evenodd" d="M11.1112 8.24241C11.1112 7.75176 11.5095 7.35354 12.0001 7.35354C12.4908 7.35354 12.889 7.75176 12.889 8.24241V11.7979C12.889 12.2885 12.4908 12.6868 12.0001 12.6868C11.5095 12.6868 11.1112 12.2885 11.1112 11.7979V8.24241ZM11.1113 14.4645C11.1113 13.9738 11.5095 13.5756 12.0001 13.5756C12.4908 13.5756 12.889 13.9738 12.889 14.4645C12.889 14.9552 12.4908 15.3534 12.0001 15.3534C11.5095 15.3534 11.1113 14.9552 11.1113 14.4645ZM19.8797 16.556C19.6761 16.916 19.2797 17.1311 18.8192 17.1311H5.18043C4.72 17.1311 4.32356 16.916 4.1209 16.556C4.0249 16.3871 3.89868 16.0431 4.13601 15.652L10.9545 4.34739C11.3696 3.6594 12.63 3.6594 13.0451 4.34739L19.8645 15.652C20.101 16.0431 19.9757 16.3871 19.8797 16.556Z" fill="white"/>
</svg>
